<svg xmlns="http://www.w3.org/2000/svg" viewBox="0 0 600 221.99"><defs><style>.cls-1{fill:#fff;}</style></defs><title>Fichier 1azdcddcfdddd4</title><g id="Calque_2" data-name="Calque 2"><g id="Calque_1-2" data-name="Calque 1"><path class="cls-1" d="M16.79,205.2V43.42H0V222H178.52V205.2Zm40.78-61.76a13.83,13.83,0,0,0,11-4.76L64,134.25c-2.11,2.31-3.77,3.18-6.4,3.18a7.54,7.54,0,0,1-6.21-3c-1.46-1.84-2-4.29-2-8.19s.53-6.28,2-8.12a7.54,7.54,0,0,1,6.21-3c2.63,0,4.29.86,6.4,3.17l4.63-4.5a13.77,13.77,0,0,0-11-4.69c-7.54,0-15,4.57-15,17.12s7.41,17.18,15,17.18Zm31,0c5.88,0,9.12-1.78,12.55-5.22l-4.29-4a10,10,0,0,1-8.13,3.44c-5.48,0-8.52-3.64-8.52-9.39H101.9v-3c0-9.52-5.23-16.13-14.22-16.13-8.58,0-14.19,6.28-14.19,17.12,0,12.75,6.67,17.18,15.06,17.18ZM81,119a7.33,7.33,0,0,1,13.28,0,10.49,10.49,0,0,1,.93,4.56H80.16A10.52,10.52,0,0,1,81,119Zm40.63,18.7c-3.31,0-6.94-.73-9.63-3.5l-4.44,4.43c4,3.9,8.6,4.82,14.07,4.82,8,0,13.95-3.64,13.95-10.64,0-6-3.7-8.92-10-9.45l-5.28-.47c-3.57-.32-4.64-1.84-4.64-3.83,0-2.5,2-4.29,6.09-4.29,3.17,0,6.14.66,8.26,2.45l4.22-4.31c-3.11-2.7-7.39-3.76-12.41-3.76-7,0-12.62,3.7-12.62,10.25,0,5.88,3.63,8.72,9.9,9.25l5.36.46c3.23.26,4.48,1.72,4.48,4,0,3.17-3.23,4.63-7.33,4.63Zm28.87-28.15h-6.73V143h6.73Z"/><path class="cls-1" d="M78.65,43.4h99.88v99.5h45V0H78.65V43.4Zm201-17.77h-6.55l-5.64,8.58,4.35,0Zm2.49,49.68H264.56V60.22h15.06V55.63H264.56V41.92h17.25v-4.6h-22.6V79.9h22.9V75.31Zm14.22-30.57a7.65,7.65,0,0,1,6.7-3.41q3.78,0,5.62,2.22c1.22,1.49,2,4,2.19,7.43h5.41q-.3-6.87-3.67-10.55c-2.26-2.46-5.43-3.69-9.55-3.69a12.82,12.82,0,0,0-10.57,4.83c-2.59,3.22-3.87,7.59-3.87,13.13v7.72q0,8.33,3.76,13.2a12.23,12.23,0,0,0,10.18,4.87q6.38,0,9.87-3.64t3.85-10.49h-5.41c-.3,3.59-1,6.08-2.28,7.46s-3.24,2.08-6,2.08a7,7,0,0,1-6.35-3.45Q294,69,294,62.53v-7.8q0-6.58,2.34-10Zm41.13-8a12.58,12.58,0,0,0-10.53,4.84q-3.76,4.85-3.77,13.38v8q.15,8.37,4,12.94a12.84,12.84,0,0,0,10.4,4.58q6.84,0,10.55-4.71t3.72-13.42V54.61q-.09-8.61-3.85-13.23t-10.48-4.64Zm9,26.14q-.09,6.52-2.26,9.68t-6.66,3.16a7.59,7.59,0,0,1-6.77-3.42q-2.26-3.42-2.27-9.94V54.72q0-6.48,2.3-9.82a8.49,8.49,0,0,1,13.45,0q2.2,3.28,2.21,10Zm36.3,12.43H366v-38h-5.38V79.9h22.08V75.31Zm29.87,0H395.07V60.22h15.06V55.63H395.07V41.92h17.25V37.33h-22.6V79.9h22.89V75.31ZM269.36,100.54H259.21v42.58h9.53q8,0,12.14-4.61t4.18-13.06v-7.13q0-8.46-4.12-13.11t-11.58-4.67Zm10.41,25.17q-.06,6.35-2.66,9.58t-8.25,3.24h-4.3v-33.4h4.8c3.49,0,6.09,1.05,7.82,3.15s2.59,5.39,2.59,9.87v7.56Zm13.64-23.24a16.08,16.08,0,0,1-2.37,8l2.89,2.1a13,13,0,0,0,3.3-4.7,15.19,15.19,0,0,0,1.3-5.68v-4h-5.12v4.27Zm13,40.65h5.36V100.54h-5.36v42.58Zm37.83-9.62-17.11-33H321.8v42.58h5.38V110.31l17.05,32.81h5.38V100.54h-5.32v33Zm21.82-26q2.14-3,6.73-3c2.56,0,4.46.74,5.72,2.23a10.8,10.8,0,0,1,2.21,6.22h5.35q-.36-6.28-3.79-9.67T372.81,100c-4.75,0-8.33,1.48-10.71,4.46s-3.59,7.44-3.59,13.4v8.37q.09,8.35,4,12.94t10.84,4.57q7.77,0,11.81-4.7l.94-1.17V121.92H373v4.59h7.78v9.78l-.8.73q-2.25,2.08-6.57,2.09a8.13,8.13,0,0,1-7-3.44q-2.46-3.43-2.46-9.87v-8.68q.09-6.59,2.22-9.58Zm37.56-10.12,4.36,0,7.84-8.6h-6.55Zm-2.86,26h15.06v-4.59H400.81V105.13h17.25v-4.59h-22.6v42.57h22.89v-4.58H400.81Zm47.48,10.06-17.11-33H425.8v42.58h5.38V110.31l17.05,32.81h5.37V100.54h-5.32v33Zm15.42,9.62h5.35V100.54h-5.35v42.58Zm20.68-19.68h15.07v-4.59H484.39V105.13h17.25v-4.59H479.05v42.57h22.89v-4.58H484.39Zm45,7.14q0,4.29-1.84,6.42c-1.21,1.4-3.19,2.11-5.91,2.11s-4.68-.71-5.9-2.11-1.83-3.56-1.83-6.42v-30h-5.32v30.27q.06,6.19,3.39,9.54t9.65,3.35c4.12,0,7.32-1.14,9.63-3.42s3.46-5.44,3.5-9.47V100.54h-5.38v30Zm37.1-10.34a13.28,13.28,0,0,0,1.74-6.89q0-6.3-3.22-9.55t-9.47-3.26H543.6v42.58H549V125.9h7.48L564,143.12h5.77v-.36l-8.25-18.09a11.11,11.11,0,0,0,4.93-4.43Zm-11,1.06H549V105.13h6.43q7.43,0,7.43,8.2a8.17,8.17,0,0,1-2,5.8A6.92,6.92,0,0,1,555.48,121.3Zm41.81,3q-2.7-3-9-5.12a17.18,17.18,0,0,1-6-3.25,5.92,5.92,0,0,1-1.93-4.51,7,7,0,0,1,1.78-5.1,6.74,6.74,0,0,1,5-1.81,6.9,6.9,0,0,1,5.47,2.16,8.94,8.94,0,0,1,1.9,6.11H600a13.74,13.74,0,0,0-1.58-6.54,11.32,11.32,0,0,0-4.5-4.65,13.17,13.17,0,0,0-6.67-1.68,12.2,12.2,0,0,0-8.85,3.28,12,12,0,0,0-2.19,13.52,11.89,11.89,0,0,0,3.57,4,27,27,0,0,0,6.88,3.37,17.81,17.81,0,0,1,6.24,3.31,6.54,6.54,0,0,1,1.72,4.88,6.75,6.75,0,0,1-1.78,5,7.16,7.16,0,0,1-5.32,1.81,8.15,8.15,0,0,1-6-2.19,8.26,8.26,0,0,1-2.22-6.14h-5.37a12.57,12.57,0,0,0,1.8,6.74,12.22,12.22,0,0,0,4.94,4.56,14.73,14.73,0,0,0,6.86,1.62c3.85,0,6.91-1,9.14-3.11a10.76,10.76,0,0,0,3.37-8.3,11.49,11.49,0,0,0-2.71-7.95Z"/></g></g></svg>